<?xml version="1.0" encoding="UTF-8"?>
<svg viewBox="0 0 508.93 506.32" xmlns="http://www.w3.org/2000/svg" xmlns:xlink="http://www.w3.org/1999/xlink">
 <g transform="rotate(.18071 255.26 253.14)" opacity=".12">
  <g transform="matrix(.99728 .002937 -.003379 1.0003 2.346 -.85129)" fill="none" stroke="#1a1a1a" stroke-linecap="round" stroke-width="3">
   <path d="m256.68 252.22h250.71"/>
   <path d="m256.68 252.22l242.17-64.89"/>
   <path d="m256.68 252.22l217.12-125.36"/>
   <path d="m256.68 252.22l177.28-177.28"/>
   <path d="m256.68 252.22l125.36-217.12"/>
   <path d="m256.68 252.22l64.89-242.17"/>
   <path d="m507.4 252.22c-18.097-23.808-16.987-44.873-8.5429-64.89-37.423-31.785-22.414-42.598-25.046-60.467-41.399-11.685-33.884-33.152-39.843-51.925-43.689 2.5475-44.719-20.501-51.925-39.843-23.634 8.0822-50.627-6.8676-60.468-25.046-27.999 18.63-50.665 15.927-67.89-8.5429"/>
   <path d="m253.68 252.22v-250.71"/>
   <path d="m477.93 252.39c-16.007-21.059-15.025-39.692-7.5565-57.397-33.102-28.116-19.826-37.68-22.154-53.486-36.619-10.336-29.972-29.324-35.243-45.929-38.645 2.2534-39.555-18.134-45.929-35.243-20.905 7.1489-44.781-6.0747-53.486-22.155-24.766 16.478-44.816 14.088-60.051-7.5565"/>
   <path d="m447.14 252.57c-13.824-18.187-12.976-34.278-6.5259-49.57-28.588-24.281-17.122-32.541-19.133-46.191-31.625-8.926-25.884-25.325-30.436-39.665-33.374 1.9459-34.161-15.661-39.666-30.436-18.054 6.174-38.674-5.2463-46.191-19.133-21.389 14.231-38.704 12.167-51.861-6.526"/>
   <path d="m418.02 252.74c-11.759-15.47-11.038-29.158-5.5511-42.165-24.317-20.654-14.564-27.68-16.275-39.291-26.9-7.5926-22.018-21.542-25.89-33.74-28.389 1.6554-29.058-13.321-33.74-25.89-15.357 5.2517-32.897-4.4624-39.291-16.275-18.194 12.105-32.922 10.35-44.114-5.551"/>
   <path d="m371.72 252.91c-8.4693-11.142-7.9497-20.999-3.998-30.367-17.514-14.875-10.49-19.935-11.722-28.297-19.374-5.4683-15.858-15.514-18.646-24.3-20.446 1.1923-20.928-9.594-24.3-18.646-11.06 3.7822-23.693-3.214-28.298-11.721-13.103 8.7181-23.711 7.4536-31.772-3.9978"/>
   <path d="m391.96 252.91c-9.9128-13.041-9.3047-24.58-4.6794-35.544-20.499-17.411-12.277-23.334-13.72-33.122-22.677-6.4004-18.56-18.16-21.825-28.442-23.931 1.3955-24.495-11.23-28.442-21.825-12.946 4.4272-27.732-3.7618-33.122-13.72-15.337 10.205-27.753 8.7246-37.187-4.6794"/>
   <path d="m344.71 253.17c-6.5609-8.6315-6.1584-16.268-3.0971-23.525-13.567-11.524-8.1259-15.444-9.0804-21.922-15.009-4.2362-12.284-12.019-14.445-18.825-15.839 0.92358-16.212-7.4324-18.825-14.445-8.5682 2.93-18.354-2.4898-21.922-9.0804-10.151 6.754-18.368 5.7743-24.613-3.097"/>
   <path d="m324.62 253.29c-5.1367-6.7578-4.8216-12.737-2.4248-18.418-10.622-9.0221-6.362-12.091-7.1092-17.163-11.751-3.3166-9.6177-9.4099-11.309-14.738-12.401 0.72302-12.693-5.8191-14.738-11.309-6.7083 2.294-14.37-1.9495-17.163-7.1094-7.9474 5.288-14.381 4.521-19.27-2.4248"/>
   <path d="m298.08 253.45c-3.2542-4.2812-3.0545-8.069-1.5362-11.668-6.7294-5.7157-4.0304-7.6599-4.5038-10.873-7.4443-2.1012-6.093-5.9613-7.1646-9.337-7.8562 0.45813-8.0413-3.6865-9.3371-7.1647-4.2498 1.4534-9.1037-1.2349-10.873-4.5038-5.0348 3.35-9.1107 2.864-12.208-1.5361"/>
   <g transform="matrix(-1 0 0 1 1040.5 -207.9)">
    <path d="m788.31 461.16h250.71"/>
    <path d="m788.31 461.16l242.17-64.89"/>
    <path d="m788.31 461.16l217.12-125.36"/>
    <path d="m788.31 461.16l177.28-177.28"/>
    <path d="m788.31 461.16l125.36-217.12"/>
    <path d="m788.31 461.16l64.89-242.17"/>
    <path d="m1039 461.16c-18.097-23.808-16.987-44.873-8.5428-64.89-37.423-31.785-22.414-42.598-25.046-60.467-41.399-11.685-33.884-33.152-39.843-51.925-43.689 2.5475-44.719-20.501-51.925-39.843-23.634 8.0822-50.627-6.8676-60.468-25.046-27.999 18.63-50.665 15.927-67.89-8.5429"/>
    <path d="m785.31 461.16v-250.71"/>
    <path d="m1009.6 461.33c-16.007-21.059-15.025-39.692-7.5565-57.397-33.102-28.116-19.826-37.68-22.154-53.486-36.619-10.336-29.972-29.324-35.243-45.929-38.645 2.2534-39.555-18.134-45.929-35.243-20.905 7.1489-44.781-6.0747-53.486-22.155-24.766 16.478-44.816 14.088-60.051-7.5565"/>
    <path d="m978.77 461.51c-13.824-18.187-12.976-34.278-6.5259-49.57-28.588-24.281-17.122-32.541-19.133-46.191-31.625-8.926-25.884-25.325-30.436-39.665-33.374 1.9459-34.161-15.661-39.666-30.436-18.054 6.174-38.674-5.2463-46.191-19.133-21.389 14.231-38.704 12.167-51.861-6.526"/>
    <path d="m949.65 461.68c-11.759-15.47-11.038-29.158-5.5511-42.165-24.317-20.654-14.564-27.68-16.275-39.291-26.9-7.5926-22.018-21.542-25.89-33.74-28.389 1.6554-29.058-13.321-33.74-25.89-15.357 5.2517-32.897-4.4624-39.291-16.275-18.194 12.105-32.922 10.35-44.114-5.551"/>
    <path d="m903.35 461.86c-8.4693-11.142-7.9496-20.999-3.998-30.367-17.514-14.875-10.49-19.935-11.722-28.297-19.374-5.4683-15.857-15.514-18.646-24.3-20.446 1.1923-20.928-9.594-24.3-18.646-11.06 3.7822-23.693-3.214-28.298-11.721-13.104 8.7181-23.711 7.4536-31.772-3.9978"/>
    <path d="m923.59 461.86c-9.9129-13.041-9.3048-24.58-4.6795-35.544-20.499-17.411-12.277-23.334-13.72-33.122-22.677-6.4004-18.56-18.16-21.825-28.442-23.931 1.3955-24.495-11.23-28.442-21.825-12.946 4.4272-27.732-3.7618-33.122-13.72-15.337 10.205-27.753 8.7246-37.187-4.6794"/>
    <path d="m876.34 462.12c-6.5608-8.6315-6.1583-16.268-3.0971-23.525-13.567-11.524-8.1259-15.444-9.0804-21.922-15.009-4.2362-12.284-12.019-14.445-18.825-15.839 0.92358-16.212-7.4324-18.825-14.445-8.5682 2.93-18.354-2.4898-21.922-9.0804-10.151 6.754-18.368 5.7743-24.613-3.097"/>
    <path d="m856.25 462.23c-5.1367-6.7578-4.8215-12.737-2.4248-18.418-10.622-9.0221-6.362-12.091-7.1092-17.163-11.751-3.3166-9.6177-9.4099-11.309-14.738-12.401 0.72302-12.693-5.8191-14.738-11.309-6.7083 2.294-14.37-1.9495-17.163-7.1094-7.9474 5.288-14.381 4.521-19.27-2.4248"/>
    <path d="m829.7 462.39c-3.2542-4.2812-3.0546-8.069-1.5362-11.668-6.7294-5.7157-4.0304-7.6599-4.5038-10.873-7.4443-2.1012-6.093-5.9613-7.1646-9.337-7.8561 0.45813-8.0413-3.6865-9.337-7.1647-4.2499 1.4534-9.1038-1.2349-10.873-4.5038-5.0348 3.35-9.1106 2.864-12.208-1.5361"/>
   </g>
   <g transform="matrix(-1 0 0 -1 1040.5 2181)">
    <path d="m788.31 1928h250.71"/>
    <path d="m788.31 1928l242.17-64.89"/>
    <path d="m788.31 1928l217.12-125.36"/>
    <path d="m788.31 1928l177.28-177.28"/>
    <path d="m788.31 1928l125.36-217.12"/>
    <path d="m788.31 1928l64.89-242.17"/>
    <path d="m1039 1928c-18.097-23.808-16.987-44.873-8.5428-64.89-37.423-31.785-22.414-42.598-25.046-60.467-41.399-11.685-33.884-33.152-39.843-51.925-43.689 2.5474-44.719-20.501-51.925-39.843-23.634 8.0822-50.627-6.8676-60.468-25.046-27.999 18.63-50.665 15.927-67.89-8.543"/>
    <path d="m785.31 1928v-250.71"/>
    <path d="m1009.6 1928.1c-16.007-21.059-15.025-39.692-7.5565-57.397-33.102-28.116-19.826-37.68-22.154-53.486-36.619-10.336-29.972-29.324-35.243-45.929-38.645 2.2534-39.555-18.134-45.929-35.243-20.905 7.1488-44.781-6.0747-53.486-22.155-24.766 16.479-44.816 14.088-60.051-7.5564"/>
    <path d="m978.77 1928.3c-13.824-18.187-12.976-34.278-6.5259-49.57-28.588-24.281-17.122-32.541-19.133-46.191-31.625-8.926-25.884-25.325-30.436-39.665-33.374 1.9459-34.161-15.661-39.666-30.436-18.054 6.174-38.674-5.2463-46.191-19.133-21.389 14.231-38.704 12.167-51.861-6.526"/>
    <path d="m949.65 1928.5c-11.759-15.47-11.038-29.158-5.5511-42.165-24.317-20.654-14.564-27.68-16.275-39.291-26.9-7.5926-22.018-21.542-25.89-33.74-28.389 1.6554-29.058-13.321-33.74-25.89-15.357 5.2517-32.897-4.4624-39.291-16.275-18.194 12.105-32.922 10.35-44.114-5.551"/>
    <path d="m903.35 1928.6c-8.4693-11.142-7.9496-20.999-3.998-30.367-17.514-14.875-10.49-19.935-11.722-28.297-19.374-5.4683-15.857-15.514-18.646-24.3-20.446 1.1923-20.928-9.594-24.3-18.646-11.06 3.7822-23.693-3.214-28.298-11.721-13.104 8.7181-23.711 7.4536-31.772-3.9978"/>
    <path d="m923.59 1928.6c-9.9129-13.041-9.3048-24.58-4.6795-35.544-20.499-17.411-12.277-23.334-13.72-33.122-22.677-6.4004-18.56-18.16-21.825-28.442-23.931 1.3955-24.495-11.23-28.442-21.825-12.946 4.4272-27.732-3.7618-33.122-13.72-15.337 10.205-27.753 8.7246-37.187-4.6794"/>
    <path d="m876.34 1928.9c-6.5608-8.6315-6.1583-16.268-3.0971-23.525-13.567-11.524-8.1259-15.444-9.0804-21.922-15.009-4.2362-12.284-12.019-14.445-18.825-15.839 0.92358-16.212-7.4324-18.825-14.445-8.5682 2.93-18.354-2.4898-21.922-9.0804-10.151 6.754-18.368 5.7743-24.613-3.097"/>
    <path d="m856.25 1929c-5.1367-6.7578-4.8215-12.737-2.4248-18.418-10.622-9.0221-6.362-12.091-7.1092-17.163-11.751-3.3166-9.6177-9.4099-11.309-14.738-12.401 0.72302-12.693-5.8191-14.738-11.309-6.7083 2.2939-14.37-1.9495-17.163-7.1094-7.9474 5.288-14.381 4.521-19.27-2.4248"/>
    <path d="m829.7 1929.2c-3.2542-4.2812-3.0546-8.069-1.5362-11.668-6.7294-5.7157-4.0304-7.6599-4.5038-10.873-7.4443-2.1012-6.093-5.9613-7.1646-9.337-7.8561 0.45813-8.0413-3.6865-9.337-7.1647-4.2499 1.4534-9.1038-1.2349-10.873-4.5038-5.0348 3.35-9.1106 2.864-12.208-1.5361"/>
   </g>
   <g transform="matrix(1 0 0 -1 767.01 2182.1)">
    <path d="m-510.29 1928h250.71"/>
    <path d="m-510.29 1928l242.17-64.89"/>
    <path d="m-510.29 1928l217.12-125.36"/>
    <path d="m-510.29 1928l177.28-177.28"/>
    <path d="m-510.29 1928l125.36-217.12"/>
    <path d="m-510.29 1928l64.89-242.17"/>
    <path d="m-259.58 1928c-18.097-23.808-16.987-44.873-8.5429-64.89-37.423-31.785-22.414-42.598-25.046-60.467-41.399-11.685-33.884-33.152-39.843-51.925-43.689 2.5474-44.719-20.501-51.925-39.843-23.634 8.0822-50.627-6.8676-60.468-25.046-27.999 18.63-50.665 15.927-67.89-8.543"/>
    <path d="m-513.29 1928v-250.71"/>
    <path d="m-289.04 1928.1c-16.007-21.059-15.025-39.692-7.5565-57.397-33.102-28.116-19.826-37.68-22.154-53.486-36.619-10.336-29.972-29.324-35.243-45.929-38.645 2.2534-39.555-18.134-45.929-35.243-20.905 7.1488-44.781-6.0747-53.486-22.155-24.766 16.479-44.816 14.088-60.051-7.5564"/>
    <path d="m-319.83 1928.3c-13.824-18.187-12.976-34.278-6.5259-49.57-28.588-24.281-17.122-32.541-19.133-46.191-31.625-8.926-25.884-25.325-30.436-39.665-33.374 1.9459-34.161-15.661-39.666-30.436-18.054 6.174-38.674-5.2463-46.191-19.133-21.389 14.231-38.704 12.167-51.861-6.526"/>
    <path d="m-348.95 1928.5c-11.759-15.47-11.038-29.158-5.5511-42.165-24.317-20.654-14.564-27.68-16.275-39.291-26.9-7.5926-22.018-21.542-25.89-33.74-28.389 1.6554-29.058-13.321-33.74-25.89-15.357 5.2517-32.897-4.4624-39.291-16.275-18.194 12.105-32.922 10.35-44.114-5.551"/>
    <path d="m-395.25 1928.6c-8.4693-11.142-7.9497-20.999-3.998-30.367-17.514-14.875-10.49-19.935-11.722-28.297-19.374-5.4683-15.858-15.514-18.646-24.3-20.446 1.1923-20.928-9.594-24.3-18.646-11.06 3.7822-23.693-3.214-28.298-11.721-13.103 8.7181-23.711 7.4536-31.772-3.9978"/>
    <path d="m-375.01 1928.6c-9.9128-13.041-9.3047-24.58-4.6794-35.544-20.499-17.411-12.277-23.334-13.72-33.122-22.677-6.4004-18.56-18.16-21.825-28.442-23.931 1.3955-24.495-11.23-28.442-21.825-12.946 4.4272-27.732-3.7618-33.122-13.72-15.337 10.205-27.753 8.7246-37.187-4.6794"/>
    <path d="m-422.26 1928.9c-6.5609-8.6315-6.1584-16.268-3.0971-23.525-13.567-11.524-8.1259-15.444-9.0804-21.922-15.009-4.2362-12.284-12.019-14.445-18.825-15.839 0.92358-16.212-7.4324-18.825-14.445-8.5682 2.93-18.354-2.4898-21.922-9.0804-10.151 6.754-18.368 5.7743-24.613-3.097"/>
    <path d="m-442.35 1929c-5.1367-6.7578-4.8216-12.737-2.4248-18.418-10.622-9.0221-6.362-12.091-7.1092-17.163-11.751-3.3166-9.6177-9.4099-11.309-14.738-12.401 0.72302-12.693-5.8191-14.738-11.309-6.7083 2.2939-14.37-1.9495-17.163-7.1094-7.9474 5.288-14.381 4.521-19.27-2.4248"/>
    <path d="m-468.9 1929.2c-3.2542-4.2812-3.0545-8.069-1.5362-11.668-6.7294-5.7157-4.0304-7.6599-4.5038-10.873-7.4443-2.1012-6.093-5.9613-7.1646-9.337-7.8562 0.45813-8.0413-3.6865-9.3371-7.1647-4.2498 1.4534-9.1037-1.2349-10.873-4.5038-5.0348 3.35-9.1107 2.864-12.208-1.5361"/>
   </g>
  </g>
 </g>
 <use transform="scale(.047256)" xlink:href="#svg_72"/>
</svg>
